<?xml version="1.0" encoding="UTF-8"?>
<svg id="Layer_1" xmlns="http://www.w3.org/2000/svg" version="1.1" xmlns:xlink="http://www.w3.org/1999/xlink" viewBox="0 0 42.96 104.22">
  <!-- Generator: Adobe Illustrator 29.2.1, SVG Export Plug-In . SVG Version: 2.1.0 Build 116)  -->
  <defs>
    <style>
      .st0 {
        fill: #0363f6;
      }

      .st1 {
        fill: none;
      }

      .st2 {
        fill: #f7d131;
      }

      .st3 {
        opacity: .1;
      }

      .st4 {
        clip-path: url(#clippath);
      }
    </style>
    <clipPath id="clippath">
      <rect class="st1" x="21.22" y="45.32" width="18.97" height="58.91"/>
    </clipPath>
  </defs>
  <path id="Path_543" class="st2" d="M35.01,4.8h0c6.54,5.31,9.38,13.95,7.25,22.11l-8.64,33.08-9.89,37.85c-.33,1.24-1.6,1.98-2.84,1.66-.81-.21-1.44-.85-1.66-1.66l-9.89-37.85L.7,26.9C-2.29,15.43,4.58,3.69,16.06.7c6.61-1.73,13.65-.2,18.95,4.1"/>
  <path id="Path_544" class="st0" d="M27.46,15.07c0,3.3-2.68,5.98-5.98,5.98s-5.98-2.68-5.98-5.98,2.68-5.98,5.98-5.98h0c3.3,0,5.98,2.68,5.98,5.98"/>
  <g id="Group_14991" class="st3">
    <g id="Group_14990">
      <g class="st4">
        <g id="Group_14989">
          <path id="Path_545" d="M37.45,45.32l-13.72,52.52c-.32,1.1-1.37,1.82-2.51,1.74l.09,4.65s4.84-.78,6.7-4.65,12.18-53.99,12.18-53.99l-2.74-.27Z"/>
        </g>
      </g>
    </g>
  </g>
</svg>